<svg viewBox="0 0 512.009 512.009" xmlns="http://www.w3.org/2000/svg"><path d="m255.944 15.93c-141.326-.028-255.916 114.516-255.944 255.842-.018 92.317 49.689 177.488 130.077 222.878 2.456 1.415 5.38 1.777 8.107 1.003 2.708-.756 5.008-2.55 6.4-4.992l78.933-139.499c2.895-5.126 1.091-11.628-4.032-14.528-35.954-20.194-48.73-65.712-28.535-101.666s65.712-48.73 101.666-28.535 48.73 65.712 28.535 101.666c-6.712 11.951-16.585 21.823-28.535 28.535-5.123 2.9-6.927 9.402-4.032 14.528l78.72 139.499c1.388 2.45 3.689 4.253 6.4 5.013.929.269 1.891.406 2.859.405 1.84-.002 3.648-.48 5.248-1.387 123.087-69.444 166.573-225.522 97.129-348.61-45.392-80.453-130.621-130.198-222.996-130.152z" fill="#4caf50"/></svg>